<mxfile host="app.diagrams.net" modified="2023-05-26T05:04:02.272Z" agent="Mozilla/5.0 (Windows NT 10.0; Win64; x64) AppleWebKit/537.36 (KHTML, like Gecko) Chrome/113.0.0.0 Safari/537.36" etag="MbAe_47QvKOm6i361YGd" version="21.3.4" type="github">
  <diagram name="Page-1" id="_Yx7EaNyHoncJA6XGd1r">
    <mxGraphModel dx="1050" dy="549" grid="1" gridSize="10" guides="1" tooltips="1" connect="1" arrows="1" fold="1" page="1" pageScale="1" pageWidth="850" pageHeight="1100" math="0" shadow="0">
      <root>
        <mxCell id="0" />
        <mxCell id="1" parent="0" />
        <mxCell id="ct6HcofJqHDrrLQW4kxx-17" value="" style="rounded=0;whiteSpace=wrap;html=1;" vertex="1" parent="1">
          <mxGeometry x="50" y="30" width="620" height="500" as="geometry" />
        </mxCell>
        <mxCell id="ct6HcofJqHDrrLQW4kxx-13" style="edgeStyle=orthogonalEdgeStyle;rounded=0;orthogonalLoop=1;jettySize=auto;html=1;entryX=0.5;entryY=0;entryDx=0;entryDy=0;" edge="1" parent="1" source="ct6HcofJqHDrrLQW4kxx-3" target="ct6HcofJqHDrrLQW4kxx-4">
          <mxGeometry relative="1" as="geometry" />
        </mxCell>
        <mxCell id="ct6HcofJqHDrrLQW4kxx-3" value="DATASET 1" style="rounded=0;whiteSpace=wrap;html=1;" vertex="1" parent="1">
          <mxGeometry x="150" y="120" width="120" height="60" as="geometry" />
        </mxCell>
        <mxCell id="ct6HcofJqHDrrLQW4kxx-14" style="rounded=0;orthogonalLoop=1;jettySize=auto;html=1;entryX=0.5;entryY=0;entryDx=0;entryDy=0;" edge="1" parent="1" source="ct6HcofJqHDrrLQW4kxx-4" target="ct6HcofJqHDrrLQW4kxx-7">
          <mxGeometry relative="1" as="geometry" />
        </mxCell>
        <mxCell id="ct6HcofJqHDrrLQW4kxx-4" value="FULL USAGE OF VALUES 1" style="rounded=0;whiteSpace=wrap;html=1;" vertex="1" parent="1">
          <mxGeometry x="150" y="270" width="120" height="60" as="geometry" />
        </mxCell>
        <mxCell id="ct6HcofJqHDrrLQW4kxx-12" style="edgeStyle=orthogonalEdgeStyle;rounded=0;orthogonalLoop=1;jettySize=auto;html=1;entryX=0.5;entryY=0;entryDx=0;entryDy=0;" edge="1" parent="1" source="ct6HcofJqHDrrLQW4kxx-5" target="ct6HcofJqHDrrLQW4kxx-6">
          <mxGeometry relative="1" as="geometry" />
        </mxCell>
        <mxCell id="ct6HcofJqHDrrLQW4kxx-5" value="DATASET 2" style="rounded=0;whiteSpace=wrap;html=1;" vertex="1" parent="1">
          <mxGeometry x="480" y="120" width="120" height="60" as="geometry" />
        </mxCell>
        <mxCell id="ct6HcofJqHDrrLQW4kxx-15" style="rounded=0;orthogonalLoop=1;jettySize=auto;html=1;entryX=0.5;entryY=0;entryDx=0;entryDy=0;" edge="1" parent="1" source="ct6HcofJqHDrrLQW4kxx-6" target="ct6HcofJqHDrrLQW4kxx-7">
          <mxGeometry relative="1" as="geometry" />
        </mxCell>
        <mxCell id="ct6HcofJqHDrrLQW4kxx-6" value="FULL USAGE OF VALUES 1" style="rounded=0;whiteSpace=wrap;html=1;" vertex="1" parent="1">
          <mxGeometry x="480" y="270" width="120" height="60" as="geometry" />
        </mxCell>
        <mxCell id="ct6HcofJqHDrrLQW4kxx-7" value="JACCARD INDEX" style="rounded=0;whiteSpace=wrap;html=1;" vertex="1" parent="1">
          <mxGeometry x="305" y="430" width="120" height="60" as="geometry" />
        </mxCell>
        <mxCell id="ct6HcofJqHDrrLQW4kxx-8" style="edgeStyle=orthogonalEdgeStyle;rounded=0;orthogonalLoop=1;jettySize=auto;html=1;entryX=1;entryY=0.5;entryDx=0;entryDy=0;" edge="1" parent="1" source="ct6HcofJqHDrrLQW4kxx-3" target="ct6HcofJqHDrrLQW4kxx-3">
          <mxGeometry relative="1" as="geometry" />
        </mxCell>
        <mxCell id="ct6HcofJqHDrrLQW4kxx-9" value="N_1 TIMES" style="edgeLabel;html=1;align=center;verticalAlign=middle;resizable=0;points=[];" vertex="1" connectable="0" parent="ct6HcofJqHDrrLQW4kxx-8">
          <mxGeometry x="-0.0965" y="1" relative="1" as="geometry">
            <mxPoint x="-17" y="-19" as="offset" />
          </mxGeometry>
        </mxCell>
        <mxCell id="ct6HcofJqHDrrLQW4kxx-10" style="edgeStyle=orthogonalEdgeStyle;rounded=0;orthogonalLoop=1;jettySize=auto;html=1;entryX=1;entryY=0.5;entryDx=0;entryDy=0;" edge="1" parent="1" source="ct6HcofJqHDrrLQW4kxx-5" target="ct6HcofJqHDrrLQW4kxx-5">
          <mxGeometry relative="1" as="geometry" />
        </mxCell>
        <mxCell id="ct6HcofJqHDrrLQW4kxx-11" value="N2_TIMES" style="edgeLabel;html=1;align=center;verticalAlign=middle;resizable=0;points=[];" vertex="1" connectable="0" parent="ct6HcofJqHDrrLQW4kxx-10">
          <mxGeometry x="-0.1435" y="-1" relative="1" as="geometry">
            <mxPoint x="-13" y="-21" as="offset" />
          </mxGeometry>
        </mxCell>
        <mxCell id="ct6HcofJqHDrrLQW4kxx-16" value="100 TIMES" style="text;html=1;align=center;verticalAlign=middle;resizable=0;points=[];autosize=1;strokeColor=none;fillColor=none;" vertex="1" parent="1">
          <mxGeometry x="327" y="378" width="80" height="30" as="geometry" />
        </mxCell>
        <mxCell id="ct6HcofJqHDrrLQW4kxx-18" value="X number_of_datasets * (number_of_datasets -1) / 2" style="text;html=1;strokeColor=none;fillColor=none;align=center;verticalAlign=middle;whiteSpace=wrap;rounded=0;fontStyle=1" vertex="1" parent="1">
          <mxGeometry x="68" y="43" width="310" height="20" as="geometry" />
        </mxCell>
      </root>
    </mxGraphModel>
  </diagram>
</mxfile>
